<svg xmlns="http://www.w3.org/2000/svg" version="1.1" xmlns:xlink="http://www.w3.org/1999/xlink" width="512" height="512" x="0" y="0" viewBox="0 0 64 64" style="enable-background:new 0 0 512 512" xml:space="preserve" class=""><g><path d="M61 2H30a1 1 0 0 0-1 1v12a1 1 0 0 0 2 0V4h29v21H40v-6a1 1 0 0 0-1-1H26V7a1 1 0 0 0-1-1h-3.586l2.293-2.293a1 1 0 1 0-1.414-1.414L19 5.586l-3.293-3.293a1 1 0 0 0-1.414 1.414L16.586 6H5a1 1 0 0 0-1 1v8a1 1 0 0 0 2 0V8h6v10H3a1 1 0 0 0-1 1v20a1 1 0 0 0 2 0V28h31a1 1 0 0 0 0-2H18v-2h2a1 1 0 0 0 0-2h-2v-2h20v40H12v-5a1 1 0 0 0-1-1H4V43a1 1 0 0 0-2 0v18a1 1 0 0 0 1 1h36a1 1 0 0 0 1-1v-3h8a2 2 0 0 0 2-2v-6a2 2 0 0 0-2-2h-8v-2h16v14H43a1 1 0 0 0 0 2h14a1 1 0 0 0 1-1V45a1 1 0 0 0-1-1H40V27h20v34a1 1 0 0 0 2 0V3a1 1 0 0 0-1-1zM18 16h2v2h-2zm-4-4h2v2h-2zm4 0h2v2h-2zm2-4v2h-2V8zm4 6h-2v-2h2zm-2 2h2v2h-2zm2-6h-2V8h2zm-8-2v2h-2V8zm-2 8h2v2h-2zM4 26v-6h12v6zm0 34v-4h6v4zm44-4h-6.586l6-6H48zm-3.416-6L40 54.586V50z" fill="#000000" opacity="1" data-original="#000000" class=""></path><path d="M55 30a3 3 0 0 0-3 3v4a3 3 0 0 0 6 0v-4a3 3 0 0 0-3-3zm1 7a1 1 0 0 1-2 0v-4a1 1 0 0 1 2 0zM55 17a1 1 0 0 1-1-1 1 1 0 0 0-2 0 3 3 0 0 0 6 0v-4a3 3 0 0 0-6 0 1 1 0 0 0 2 0 1 1 0 0 1 2 0v4a1 1 0 0 1-1 1z" fill="#000000" opacity="1" data-original="#000000" class=""></path><circle cx="34" cy="23" r="1" fill="#000000" opacity="1" data-original="#000000" class=""></circle><circle cx="30" cy="23" r="1" fill="#000000" opacity="1" data-original="#000000" class=""></circle><circle cx="26" cy="23" r="1" fill="#000000" opacity="1" data-original="#000000" class=""></circle><path d="M13 22H7a1 1 0 0 0 0 2h6a1 1 0 0 0 0-2zM21 31a13.024 13.024 0 1 0 10.589 5.475 1 1 0 1 0-1.629 1.16 11.024 11.024 0 1 1-2.6-2.595 1 1 0 1 0 1.16-1.629A12.911 12.911 0 0 0 21 31z" fill="#000000" opacity="1" data-original="#000000" class=""></path><path d="M21 51a6.978 6.978 0 0 1-3.549-.976 1 1 0 0 0-1.017 1.723 9.02 9.02 0 1 0-3.181-3.181 1 1 0 0 0 1.723-1.017A6.994 6.994 0 1 1 21 51zM35 32a1 1 0 0 0 0-2h-3a1 1 0 0 0 0 2zM10 30H7a1 1 0 0 0 0 2h3a1 1 0 0 0 0-2z" fill="#000000" opacity="1" data-original="#000000" class=""></path><circle cx="53" cy="49" r="1" fill="#000000" opacity="1" data-original="#000000" class=""></circle><circle cx="53" cy="53" r="1" fill="#000000" opacity="1" data-original="#000000" class=""></circle><circle cx="9" cy="11" r="1" fill="#000000" opacity="1" data-original="#000000" class=""></circle><circle cx="9" cy="15" r="1" fill="#000000" opacity="1" data-original="#000000" class=""></circle></g></svg>