<svg xmlns="http://www.w3.org/2000/svg" version="1.1" xmlns:xlink="http://www.w3.org/1999/xlink" width="512" height="512" x="0" y="0" viewBox="0 0 33.867 33.867" style="enable-background:new 0 0 512 512" xml:space="preserve"><g><path fill="#3B3C3D" fill-rule="evenodd" d="M11.046 0a2.52 2.52 0 0 0-2.513 2.514v28.84a2.52 2.52 0 0 0 2.513 2.513H22.82a2.52 2.52 0 0 0 2.514-2.514V2.513A2.52 2.52 0 0 0 22.82 0zm0 1.059h1.585a.265.265 0 0 1 .265.264v.133a.794.794 0 0 0 .794.793h6.548a.794.794 0 0 0 .794-.793v-.133a.265.265 0 0 1 .264-.264h1.524c.816 0 1.456.64 1.456 1.455v28.84a1.44 1.44 0 0 1-1.456 1.455H11.046a1.44 1.44 0 0 1-1.455-1.456V2.513c0-.814.64-1.454 1.455-1.454z" opacity="1" data-original="#3b3c3d"></path></g></svg>