<svg xmlns="http://www.w3.org/2000/svg" version="1.1" xmlns:xlink="http://www.w3.org/1999/xlink" width="512" height="512" x="0" y="0" viewBox="0 0 454.258 454.258" style="enable-background:new 0 0 512 512" xml:space="preserve"><g><path d="m450.003 285.589-2.341-3.443-1.938 3.685c-12.648 24.029-54.696 38.389-88.041 38.389-42.46 0-252.092-6.381-279.383-7.935-5.395-.32-11.03-.469-17.735-.469-4.159 0-8.021.052-11.756.101-3.244.043-6.305.084-9.181.084-8.974 0-16.353-2.401-21.74-4.155-3.491-1.136-6.249-2.033-8.533-2.033-1.761 0-3.188.542-4.241 1.612-1.379 1.399-1.998 3.572-1.949 6.838.418 28.253 15.377 30.437 36.464 30.437 2.896 0 5.979-.041 9.247-.084 3.718-.05 7.563-.101 11.689-.101 6.604 0 12.146.146 17.445.46 27.324 1.556 237.17 7.943 279.673 7.943 21.573 0 45.421-5.729 63.792-15.322 21.141-11.041 32.783-25.898 32.783-41.836 0-5.251-1.432-10.02-4.255-14.171z" fill="#000000" opacity="1" data-original="#000000"></path><path d="M36.795 302.434c2.875 0 5.933-.041 9.176-.084 3.689-.05 7.505-.101 11.599-.101 6.565 0 12.062.146 17.308.46 27.109 1.556 235.325 7.942 277.504 7.942 21.412 0 45.08-5.729 63.313-15.326 20.979-11.042 32.532-25.898 32.532-41.832 0-23.11-26.366-30.573-54.281-38.476-15.22-4.308-30.958-8.763-44.257-15.892-5.99-3.218-15.123-7.882-26.253-13.456.018-.322.049-.642.049-.968 0-9.515-7.74-17.255-17.255-17.255-4.271 0-8.176 1.568-11.192 4.148-4.031-1.982-8.164-4.01-12.368-6.069-.376-9.184-7.944-16.545-17.219-16.545a17.134 17.134 0 0 0-10.038 3.249c-3.77-1.833-7.546-3.667-11.311-5.494.08-.672.133-1.352.133-2.045 0-9.514-7.74-17.254-17.254-17.254a17.2 17.2 0 0 0-12.228 5.095 22400.649 22400.649 0 0 0-69.634-33.477c-1.646-1.123-3.481-1.716-5.323-1.716-2.97 0-5.825 1.444-7.64 3.868L111.84 128.45c-2.722 3.687-3.791 7.403-3.178 11.048 1.214 7.222 8.664 12.338 14.65 16.448 2.383 1.637 5.927 4.07 6.496 5.251l-.025.025c-3.311 3.237-13.938 8.055-29.648 8.055-9.081 0-18.65-1.735-27.673-5.02-11.041-4.02-15.603-15.05-19.268-23.913-3.065-7.413-5.713-13.814-11.596-13.814-4.463 0-9.627 4.004-17.293 13.42C-1.752 173.07-.534 223.675.356 260.625c.095 3.957.187 7.76.24 11.369.414 28.257 15.264 30.44 36.199 30.44zm218.393-102.669s3.342-3.308 7.473-2.071c3.595 1.076 12.096 3.366 17.297 4.658 4.447 1.105.432 4.601.432 4.601l-67.519 61.801c-.054.039-2.8 2.544-6.967 2.544-6.727 0-19.768-.051-25.082-.051-4.417 0-.752-3.727-.752-3.727s75.109-67.755 75.118-67.755zm-51.41-14.587c.018-.016 5.211-5.138 11.464-3.159 3.17 1.003 10.61 2.85 15.355 4.178 4.058 1.135-.245 5.321-.247 5.325l-83.579 75.775c-.058.043-1.991 3.536-8.505 3.536-7.351 0-21.378.336-27.117.336-3.244 0-.36-3.489-.363-3.487l92.992-82.504z" fill="#000000" opacity="1" data-original="#000000"></path></g></svg>